<?xml version="1.0" encoding="utf-8"?>
<!DOCTYPE svg PUBLIC "-//W3C//DTD SVG 1.1//EN" "http://www.w3.org/Graphics/SVG/1.1/DTD/svg11.dtd">
<svg version="1.1" id="Layer_1" xmlns="http://www.w3.org/2000/svg" xmlns:xlink="http://www.w3.org/1999/xlink" x="0px" y="0px"
	 width="117px" height="110.333px" viewBox="0 0 117 110.333" enable-background="new 0 0 117 110.333" xml:space="preserve">
<path fill="#349D47" d="M117,103.333c0,3.866-3.134,7-7,7H7c-3.866,0-7-3.134-7-7V7c0-3.866,3.134-7,7-7h103c3.866,0,7,3.134,7,7
	V103.333z"/>
<g>
	<path fill="#FFFFFF" d="M70.606,20.693c0.23-0.23,0.51-0.346,0.84-0.346h11.563c0.329,0,0.608,0.116,0.84,0.346
		c0.23,0.231,0.346,0.511,0.346,0.84v66.804c0,0.331-0.116,0.61-0.346,0.84c-0.231,0.231-0.511,0.346-0.84,0.346H71.446
		c-0.33,0-0.61-0.114-0.84-0.346c-0.231-0.23-0.346-0.51-0.346-0.84V61.062c0-0.329-0.166-0.494-0.494-0.494h-21.84
		c-0.331,0-0.494,0.166-0.494,0.494v27.275c0,0.331-0.116,0.61-0.346,0.84c-0.231,0.231-0.511,0.346-0.84,0.346H34.684
		c-0.33,0-0.61-0.114-0.84-0.346c-0.231-0.23-0.346-0.51-0.346-0.84V21.533c0-0.329,0.114-0.608,0.346-0.84
		c0.23-0.23,0.51-0.346,0.84-0.346h11.563c0.329,0,0.608,0.116,0.84,0.346c0.23,0.231,0.346,0.511,0.346,0.84v26.583
		c0,0.33,0.164,0.494,0.494,0.494h21.84c0.329,0,0.494-0.164,0.494-0.494V21.533C70.26,21.205,70.375,20.925,70.606,20.693z"/>
</g>
</svg>
